<mxfile host="65bd71144e">
    <diagram id="4TMG3HaryUh4EldR7Frc" name="Page-1">
        <mxGraphModel dx="1719" dy="840" grid="1" gridSize="10" guides="1" tooltips="1" connect="1" arrows="1" fold="1" page="1" pageScale="1" pageWidth="827" pageHeight="1169" math="0" shadow="0">
            <root>
                <mxCell id="0"/>
                <mxCell id="1" parent="0"/>
                <mxCell id="40" value="" style="rounded=0;whiteSpace=wrap;html=1;fontFamily=Unispace;fontSize=18;fillColor=none;" vertex="1" parent="1">
                    <mxGeometry y="200" width="827" height="320" as="geometry"/>
                </mxCell>
                <mxCell id="13" value="Article" style="swimlane;fontStyle=0;childLayout=stackLayout;horizontal=1;startSize=30;horizontalStack=0;resizeParent=1;resizeParentMax=0;resizeLast=0;collapsible=1;marginBottom=0;fontFamily=Unispace;fontSize=18;" vertex="1" parent="1">
                    <mxGeometry x="40" y="265" width="200" height="210" as="geometry"/>
                </mxCell>
                <mxCell id="14" value="ArticleID" style="text;strokeColor=none;fillColor=none;align=left;verticalAlign=middle;spacingLeft=4;spacingRight=4;overflow=hidden;points=[[0,0.5],[1,0.5]];portConstraint=eastwest;rotatable=0;fontFamily=Unispace;fontSize=18;fontStyle=4" vertex="1" parent="13">
                    <mxGeometry y="30" width="200" height="30" as="geometry"/>
                </mxCell>
                <mxCell id="15" value="Url" style="text;strokeColor=none;fillColor=none;align=left;verticalAlign=middle;spacingLeft=4;spacingRight=4;overflow=hidden;points=[[0,0.5],[1,0.5]];portConstraint=eastwest;rotatable=0;fontFamily=Unispace;fontSize=18;" vertex="1" parent="13">
                    <mxGeometry y="60" width="200" height="30" as="geometry"/>
                </mxCell>
                <mxCell id="16" value="Title" style="text;strokeColor=none;fillColor=none;align=left;verticalAlign=middle;spacingLeft=4;spacingRight=4;overflow=hidden;points=[[0,0.5],[1,0.5]];portConstraint=eastwest;rotatable=0;fontFamily=Unispace;fontSize=18;" vertex="1" parent="13">
                    <mxGeometry y="90" width="200" height="30" as="geometry"/>
                </mxCell>
                <mxCell id="17" value="ImageUrl" style="text;strokeColor=none;fillColor=none;align=left;verticalAlign=middle;spacingLeft=4;spacingRight=4;overflow=hidden;points=[[0,0.5],[1,0.5]];portConstraint=eastwest;rotatable=0;fontFamily=Unispace;fontSize=18;" vertex="1" parent="13">
                    <mxGeometry y="120" width="200" height="30" as="geometry"/>
                </mxCell>
                <mxCell id="18" value="Description" style="text;strokeColor=none;fillColor=none;align=left;verticalAlign=middle;spacingLeft=4;spacingRight=4;overflow=hidden;points=[[0,0.5],[1,0.5]];portConstraint=eastwest;rotatable=0;fontFamily=Unispace;fontSize=18;" vertex="1" parent="13">
                    <mxGeometry y="150" width="200" height="30" as="geometry"/>
                </mxCell>
                <mxCell id="19" value="Price" style="text;strokeColor=none;fillColor=none;align=left;verticalAlign=middle;spacingLeft=4;spacingRight=4;overflow=hidden;points=[[0,0.5],[1,0.5]];portConstraint=eastwest;rotatable=0;fontFamily=Unispace;fontSize=18;" vertex="1" parent="13">
                    <mxGeometry y="180" width="200" height="30" as="geometry"/>
                </mxCell>
                <mxCell id="22" value="User" style="swimlane;fontStyle=0;childLayout=stackLayout;horizontal=1;startSize=30;horizontalStack=0;resizeParent=1;resizeParentMax=0;resizeLast=0;collapsible=1;marginBottom=0;fontFamily=Unispace;fontSize=18;" vertex="1" parent="1">
                    <mxGeometry x="600" y="295" width="200" height="150" as="geometry"/>
                </mxCell>
                <mxCell id="23" value="UserID" style="text;strokeColor=none;fillColor=none;align=left;verticalAlign=middle;spacingLeft=4;spacingRight=4;overflow=hidden;points=[[0,0.5],[1,0.5]];portConstraint=eastwest;rotatable=0;fontFamily=Unispace;fontSize=18;fontStyle=4" vertex="1" parent="22">
                    <mxGeometry y="30" width="200" height="30" as="geometry"/>
                </mxCell>
                <mxCell id="24" value="Name" style="text;strokeColor=none;fillColor=none;align=left;verticalAlign=middle;spacingLeft=4;spacingRight=4;overflow=hidden;points=[[0,0.5],[1,0.5]];portConstraint=eastwest;rotatable=0;fontFamily=Unispace;fontSize=18;" vertex="1" parent="22">
                    <mxGeometry y="60" width="200" height="30" as="geometry"/>
                </mxCell>
                <mxCell id="31" value="Email" style="text;strokeColor=none;fillColor=none;align=left;verticalAlign=middle;spacingLeft=4;spacingRight=4;overflow=hidden;points=[[0,0.5],[1,0.5]];portConstraint=eastwest;rotatable=0;fontFamily=Unispace;fontSize=18;" vertex="1" parent="22">
                    <mxGeometry y="90" width="200" height="30" as="geometry"/>
                </mxCell>
                <mxCell id="32" value="IsVerified(email)" style="text;strokeColor=none;fillColor=none;align=left;verticalAlign=middle;spacingLeft=4;spacingRight=4;overflow=hidden;points=[[0,0.5],[1,0.5]];portConstraint=eastwest;rotatable=0;fontFamily=Unispace;fontSize=18;" vertex="1" parent="22">
                    <mxGeometry y="120" width="200" height="30" as="geometry"/>
                </mxCell>
                <mxCell id="33" value="Item" style="swimlane;fontStyle=0;childLayout=stackLayout;horizontal=1;startSize=30;horizontalStack=0;resizeParent=1;resizeParentMax=0;resizeLast=0;collapsible=1;marginBottom=0;fontFamily=Unispace;fontSize=18;" vertex="1" parent="1">
                    <mxGeometry x="320" y="310" width="200" height="120" as="geometry"/>
                </mxCell>
                <mxCell id="34" value="ItemID" style="text;strokeColor=none;fillColor=none;align=left;verticalAlign=middle;spacingLeft=4;spacingRight=4;overflow=hidden;points=[[0,0.5],[1,0.5]];portConstraint=eastwest;rotatable=0;fontFamily=Unispace;fontSize=18;fontStyle=4" vertex="1" parent="33">
                    <mxGeometry y="30" width="200" height="30" as="geometry"/>
                </mxCell>
                <mxCell id="35" value="Brand" style="text;strokeColor=none;fillColor=none;align=left;verticalAlign=middle;spacingLeft=4;spacingRight=4;overflow=hidden;points=[[0,0.5],[1,0.5]];portConstraint=eastwest;rotatable=0;fontFamily=Unispace;fontSize=18;" vertex="1" parent="33">
                    <mxGeometry y="60" width="200" height="30" as="geometry"/>
                </mxCell>
                <mxCell id="36" value="Number" style="text;strokeColor=none;fillColor=none;align=left;verticalAlign=middle;spacingLeft=4;spacingRight=4;overflow=hidden;points=[[0,0.5],[1,0.5]];portConstraint=eastwest;rotatable=0;fontFamily=Unispace;fontSize=18;" vertex="1" parent="33">
                    <mxGeometry y="90" width="200" height="30" as="geometry"/>
                </mxCell>
                <mxCell id="39" value="Rules:&lt;br&gt;Articles can only contain one item for now, when full parsing of description is done, Articles will be allowed to contain multiple Items" style="text;html=1;strokeColor=none;fillColor=none;align=center;verticalAlign=middle;whiteSpace=wrap;rounded=0;fontFamily=Unispace;fontSize=18;" vertex="1" parent="1">
                    <mxGeometry x="194" y="60" width="440" height="140" as="geometry"/>
                </mxCell>
                <mxCell id="41" value="Sql Diagram" style="text;html=1;strokeColor=none;fillColor=none;align=center;verticalAlign=middle;whiteSpace=wrap;rounded=0;fontFamily=Unispace;fontSize=18;" vertex="1" parent="1">
                    <mxGeometry x="334" y="220" width="160" height="40" as="geometry"/>
                </mxCell>
                <mxCell id="47" value="" style="endArrow=classic;html=1;fontFamily=Unispace;fontSize=18;exitX=1;exitY=0.5;exitDx=0;exitDy=0;strokeColor=default;shape=link;" edge="1" parent="1" source="16">
                    <mxGeometry relative="1" as="geometry">
                        <mxPoint x="330" y="420" as="sourcePoint"/>
                        <mxPoint x="320" y="370" as="targetPoint"/>
                    </mxGeometry>
                </mxCell>
                <mxCell id="49" value="0,N" style="edgeLabel;resizable=0;html=1;align=left;verticalAlign=bottom;fontFamily=Unispace;fontSize=14;fillColor=none;" connectable="0" vertex="1" parent="47">
                    <mxGeometry x="-1" relative="1" as="geometry">
                        <mxPoint y="30" as="offset"/>
                    </mxGeometry>
                </mxCell>
                <mxCell id="50" value="1,1" style="edgeLabel;resizable=0;html=1;align=right;verticalAlign=bottom;fontFamily=Unispace;fontSize=14;fillColor=none;" connectable="0" vertex="1" parent="47">
                    <mxGeometry x="1" relative="1" as="geometry">
                        <mxPoint y="25" as="offset"/>
                    </mxGeometry>
                </mxCell>
                <mxCell id="56" value="" style="endArrow=classic;html=1;fontFamily=Unispace;fontSize=18;entryX=0;entryY=0.5;entryDx=0;entryDy=0;strokeColor=default;shape=link;" edge="1" parent="1" target="24">
                    <mxGeometry relative="1" as="geometry">
                        <mxPoint x="520" y="370" as="sourcePoint"/>
                        <mxPoint x="430" y="385" as="targetPoint"/>
                    </mxGeometry>
                </mxCell>
                <mxCell id="57" value="0,N" style="edgeLabel;resizable=0;html=1;align=left;verticalAlign=bottom;fontFamily=Unispace;fontSize=14;fillColor=none;" connectable="0" vertex="1" parent="56">
                    <mxGeometry x="-1" relative="1" as="geometry">
                        <mxPoint y="30" as="offset"/>
                    </mxGeometry>
                </mxCell>
                <mxCell id="58" value="0,N" style="edgeLabel;resizable=0;html=1;align=right;verticalAlign=bottom;fontFamily=Unispace;fontSize=14;fillColor=none;" connectable="0" vertex="1" parent="56">
                    <mxGeometry x="1" relative="1" as="geometry">
                        <mxPoint y="25" as="offset"/>
                    </mxGeometry>
                </mxCell>
            </root>
        </mxGraphModel>
    </diagram>
</mxfile>